<svg width="512" height="512" viewBox="0 0 512 512" fill="none" xmlns="http://www.w3.org/2000/svg">
<path d="M482 54H432.333C426.81 54 422.333 58.477 422.333 64C422.333 69.523 426.81 74 432.333 74H482C487.514 74 492 78.486 492 84V340C492 345.514 487.514 350 482 350H30C24.486 350 20 345.514 20 340V330.393L84.571 265.822C88.476 261.917 88.476 255.585 84.571 251.679C80.666 247.774 74.334 247.774 70.428 251.679L20 302.107V84C20 78.486 24.486 74 30 74H167.857L61.846 180.012C57.941 183.917 57.941 190.249 61.846 194.155C63.799 196.108 66.358 197.084 68.917 197.084C71.476 197.084 74.036 196.108 75.988 194.155L193.654 76.488C194.405 75.737 195.008 74.895 195.47 74H342.369C347.892 74 352.369 69.523 352.369 64C352.369 58.477 347.892 54 342.369 54H30C13.458 54 0 67.458 0 84V340C0 356.542 13.458 370 30 370H218V398H184C167.458 398 154 411.458 154 428V448C154 453.523 158.477 458 164 458H348C353.523 458 358 453.523 358 448V428C358 411.458 344.542 398 328 398H294V370H482C498.542 370 512 356.542 512 340V84C512 67.458 498.542 54 482 54ZM238 370H274V398H238V370ZM328 418C333.514 418 338 422.486 338 428V438H174V428C174 422.486 178.486 418 184 418H328Z" fill="black"/>
<path d="M398.07 56.93C396.21 55.07 393.63 54 391 54C388.37 54 385.79 55.07 383.93 56.93C382.07 58.79 381 61.37 381 64C381 66.63 382.07 69.21 383.93 71.07C385.79 72.93 388.37 74 391 74C393.63 74 396.21 72.93 398.07 71.07C399.93 69.21 401 66.63 401 64C401 61.37 399.93 58.79 398.07 56.93Z" fill="black"/>
<path d="M346.357 162.83C341.291 160.627 335.401 162.948 333.198 168.012L307.236 227.711L279.132 167.755C276.788 162.755 270.835 160.599 265.833 162.945C260.833 165.289 258.679 171.243 261.023 176.244L298.523 256.244C300.171 259.76 303.702 261.999 307.577 261.999C307.624 261.999 307.672 261.999 307.719 261.998C311.649 261.943 315.181 259.591 316.749 255.987L351.54 175.987C353.742 170.923 351.422 165.032 346.357 162.83Z" fill="black"/>
<path d="M221.396 162H172.507C166.984 162 162.507 166.477 162.507 172C162.507 177.523 166.984 182 172.507 182H186.951V252C186.951 257.523 191.428 262 196.951 262C202.474 262 206.951 257.523 206.951 252V182H221.396C226.919 182 231.396 177.523 231.396 172C231.396 166.477 226.919 162 221.396 162Z" fill="black"/>
<path d="M113.07 223.18C111.21 221.32 108.63 220.25 106 220.25C103.37 220.25 100.79 221.32 98.93 223.18C97.07 225.04 96 227.62 96 230.25C96 232.88 97.07 235.46 98.93 237.32C100.79 239.18 103.37 240.25 106 240.25C108.63 240.25 111.21 239.18 113.07 237.32C114.93 235.46 116 232.88 116 230.25C116 227.62 114.93 225.04 113.07 223.18Z" fill="black"/>
</svg>
